<svg xmlns="http://www.w3.org/2000/svg" viewBox="0 0 1024 1024" width="1024" height="1024">
  <defs>
    <linearGradient id="bg1" x1="0" y1="0" x2="1" y2="1"><stop offset="0%" stop-color="#0B1026"/><stop offset="100%" stop-color="#1A1040"/></linearGradient>
    <linearGradient id="vGrad" x1="0" y1="0" x2="1" y2="1"><stop offset="0%" stop-color="#00D4FF"/><stop offset="50%" stop-color="#7B61FF"/><stop offset="100%" stop-color="#C850C0"/></linearGradient>
    <linearGradient id="scanLine" x1="0" y1="0" x2="1" y2="0"><stop offset="0%" stop-color="#00D4FF" stop-opacity="0"/><stop offset="20%" stop-color="#00D4FF"/><stop offset="80%" stop-color="#7B61FF"/><stop offset="100%" stop-color="#7B61FF" stop-opacity="0"/></linearGradient>
    <linearGradient id="docGrad" x1="0" y1="0" x2="0" y2="1"><stop offset="0%" stop-color="#2A2060" stop-opacity="0.8"/><stop offset="100%" stop-color="#1A1040" stop-opacity="0.6"/></linearGradient>
    <filter id="glow1"><feGaussianBlur stdDeviation="8" result="b"/><feMerge><feMergeNode in="b"/><feMergeNode in="SourceGraphic"/></feMerge></filter>
    <filter id="scanGlow"><feGaussianBlur stdDeviation="6" result="b"/><feMerge><feMergeNode in="b"/><feMergeNode in="SourceGraphic"/></feMerge></filter>
    <clipPath id="roundClip1"><rect width="1024" height="1024" rx="220" ry="220"/></clipPath>
  </defs>
  <g clip-path="url(#roundClip1)">
    <rect width="1024" height="1024" fill="url(#bg1)"/>
    <circle cx="512" cy="480" r="300" fill="#7B61FF" opacity="0.06"/>
    <rect x="320" y="220" width="384" height="500" rx="20" fill="url(#docGrad)" stroke="url(#vGrad)" stroke-width="2" opacity="0.7"/>
    <path d="M644,220 L704,220 L704,280Z" fill="#2A2060" stroke="url(#vGrad)" stroke-width="2" opacity="0.5"/>
    <rect x="380" y="310" width="264" height="8" rx="4" fill="#7B61FF" opacity="0.3"/>
    <rect x="380" y="350" width="220" height="8" rx="4" fill="#7B61FF" opacity="0.25"/>
    <rect x="380" y="390" width="264" height="8" rx="4" fill="#7B61FF" opacity="0.3"/>
    <rect x="380" y="430" width="180" height="8" rx="4" fill="#7B61FF" opacity="0.25"/>
    <rect x="380" y="470" width="240" height="8" rx="4" fill="#7B61FF" opacity="0.3"/>
    <rect x="380" y="550" width="264" height="8" rx="4" fill="#7B61FF" opacity="0.25"/>
    <rect x="380" y="590" width="200" height="8" rx="4" fill="#7B61FF" opacity="0.3"/>
    <rect x="380" y="630" width="264" height="8" rx="4" fill="#7B61FF" opacity="0.25"/>
    <path d="M180,280 L180,180 L280,180" fill="none" stroke="url(#vGrad)" stroke-width="8" stroke-linecap="round" filter="url(#glow1)"/>
    <path d="M744,180 L844,180 L844,280" fill="none" stroke="url(#vGrad)" stroke-width="8" stroke-linecap="round" filter="url(#glow1)"/>
    <path d="M180,680 L180,780 L280,780" fill="none" stroke="url(#vGrad)" stroke-width="8" stroke-linecap="round" filter="url(#glow1)"/>
    <path d="M744,780 L844,780 L844,680" fill="none" stroke="url(#vGrad)" stroke-width="8" stroke-linecap="round" filter="url(#glow1)"/>
    <rect x="160" y="496" width="704" height="4" rx="2" fill="url(#scanLine)" filter="url(#scanGlow)"/>
    <circle cx="180" cy="498" r="4" fill="#00D4FF" opacity="0.8"/>
    <circle cx="844" cy="498" r="4" fill="#7B61FF" opacity="0.8"/>
    <text x="512" y="900" text-anchor="middle" font-family="'SF Pro Display','Segoe UI',Arial,sans-serif" font-weight="700" font-size="72" fill="url(#vGrad)">xVio</text>
    <text x="512" y="955" text-anchor="middle" font-family="'SF Pro Display','Segoe UI',Arial,sans-serif" font-weight="300" font-size="36" fill="#00D4FF" letter-spacing="10" opacity="0.7">SCAN</text>
  </g>
</svg>