<svg xmlns="http://www.w3.org/2000/svg" viewBox="0 0 1024 1024" width="1024" height="1024">
  <defs>
    <linearGradient id="bg3" x1="0" y1="0" x2="1" y2="1"><stop offset="0%" stop-color="#0052D4"/><stop offset="50%" stop-color="#4364F7"/><stop offset="100%" stop-color="#6FB1FC"/></linearGradient>
    <linearGradient id="scanL3" x1="0" y1="0" x2="1" y2="0"><stop offset="0%" stop-color="#FFF" stop-opacity="0"/><stop offset="15%" stop-color="#FFF"/><stop offset="85%" stop-color="#FFF"/><stop offset="100%" stop-color="#FFF" stop-opacity="0"/></linearGradient>
    <filter id="docSh"><feDropShadow dx="0" dy="8" stdDeviation="16" flood-color="#000" flood-opacity="0.3"/></filter>
    <clipPath id="roundClip3"><rect width="1024" height="1024" rx="220" ry="220"/></clipPath>
  </defs>
  <g clip-path="url(#roundClip3)">
    <rect width="1024" height="1024" fill="url(#bg3)"/>
    <g filter="url(#docSh)">
      <rect x="300" y="160" width="424" height="540" rx="24" fill="white"/>
      <path d="M660,160 L724,160 L724,224Z" fill="#E8F0FE"/>
      <path d="M660,160 L660,224 L724,224" fill="none" stroke="#4364F7" stroke-width="1.5" opacity="0.3"/>
    </g>
    <rect x="365" y="260" width="294" height="10" rx="5" fill="#4364F7" opacity="0.15"/>
    <rect x="365" y="295" width="240" height="10" rx="5" fill="#4364F7" opacity="0.12"/>
    <rect x="365" y="330" width="294" height="10" rx="5" fill="#4364F7" opacity="0.15"/>
    <rect x="365" y="365" width="200" height="10" rx="5" fill="#4364F7" opacity="0.12"/>
    <rect x="365" y="400" width="260" height="10" rx="5" fill="#4364F7" opacity="0.15"/>
    <rect x="365" y="470" width="294" height="10" rx="5" fill="#4364F7" opacity="0.12"/>
    <rect x="365" y="505" width="220" height="10" rx="5" fill="#4364F7" opacity="0.15"/>
    <rect x="365" y="540" width="294" height="10" rx="5" fill="#4364F7" opacity="0.12"/>
    <rect x="365" y="575" width="180" height="10" rx="5" fill="#4364F7" opacity="0.15"/>
    <rect x="365" y="610" width="260" height="10" rx="5" fill="#4364F7" opacity="0.12"/>
    <path d="M210,260 L210,160 L310,160" fill="none" stroke="white" stroke-width="10" stroke-linecap="round"/>
    <path d="M714,160 L814,160 L814,260" fill="none" stroke="white" stroke-width="10" stroke-linecap="round"/>
    <path d="M210,640 L210,740 L310,740" fill="none" stroke="white" stroke-width="10" stroke-linecap="round"/>
    <path d="M714,740 L814,740 L814,640" fill="none" stroke="white" stroke-width="10" stroke-linecap="round"/>
    <rect x="180" y="444" width="664" height="5" rx="2.5" fill="url(#scanL3)" opacity="0.8"/>
    <rect x="300" y="160" width="424" height="289" rx="24" fill="white" opacity="0.08"/>
    <text x="512" y="860" text-anchor="middle" font-family="'SF Pro Display','Segoe UI',Arial,sans-serif" font-weight="700" font-size="90" fill="white">xVio</text>
    <text x="512" y="930" text-anchor="middle" font-family="'SF Pro Display','Segoe UI',Arial,sans-serif" font-weight="300" font-size="44" fill="white" letter-spacing="12" opacity="0.7">SCAN</text>
  </g>
</svg>