<svg xmlns="http://www.w3.org/2000/svg" viewBox="0 0 512 600" width="512" height="600">
  <defs>
    <linearGradient id="iconGrad" x1="0%" y1="0%" x2="100%" y2="100%">
      <stop offset="0%" style="stop-color:#1E88E5"/>
      <stop offset="50%" style="stop-color:#5C4FE8"/>
      <stop offset="100%" style="stop-color:#9C27B0"/>
    </linearGradient>
    <linearGradient id="cornerG" x1="0%" y1="0%" x2="100%" y2="100%">
      <stop offset="0%" style="stop-color:#1E88E5"/>
      <stop offset="100%" style="stop-color:#9C27B0"/>
    </linearGradient>
    <linearGradient id="textG" x1="0%" y1="0%" x2="100%" y2="0%">
      <stop offset="0%" style="stop-color:#1E88E5"/>
      <stop offset="50%" style="stop-color:#5C4FE8"/>
      <stop offset="100%" style="stop-color:#9C27B0"/>
    </linearGradient>
  </defs>

  <!-- Viewfinder corners - bold, thick for visibility -->
  <g stroke="url(#cornerG)" stroke-width="32" fill="none" stroke-linecap="round" stroke-linejoin="round">
    <path d="M40 140 L40 40 L140 40"/>
    <path d="M372 40 L472 40 L472 140"/>
    <path d="M40 372 L40 472 L140 472"/>
    <path d="M372 472 L472 472 L472 372"/>
  </g>

  <!-- Document - solid, bold, no transparency -->
  <rect x="120" y="80" rx="20" ry="20" width="272" height="352" fill="url(#iconGrad)"/>

  <!-- Folded corner -->
  <path d="M320 80 L392 80 L392 152" fill="none"/>
  <path d="M320 80 L392 152 L320 152 Z" fill="#1565C0"/>

  <!-- Bold text lines - document look -->
  <g>
    <rect x="165" y="175" width="120" height="14" rx="7" fill="white"/>
    <rect x="165" y="215" width="182" height="12" rx="6" fill="white" opacity="0.7"/>
    <rect x="165" y="248" width="160" height="12" rx="6" fill="white" opacity="0.7"/>
    <rect x="165" y="281" width="175" height="12" rx="6" fill="white" opacity="0.7"/>
    <rect x="165" y="320" width="100" height="14" rx="7" fill="white"/>
    <rect x="165" y="360" width="160" height="12" rx="6" fill="white" opacity="0.7"/>
  </g>

  <!-- xVio text BELOW the icon -->
  <text x="256" y="565" text-anchor="middle" font-family="'Segoe UI', Arial, sans-serif" font-size="80" font-weight="700" fill="url(#textG)">xVio</text>
</svg>